<?xml version="1.0" encoding="utf-8"?>
<!-- Generator: Adobe Illustrator 15.0.2, SVG Export Plug-In . SVG Version: 6.00 Build 0)  -->
<!DOCTYPE svg PUBLIC "-//W3C//DTD SVG 1.1//EN" "http://www.w3.org/Graphics/SVG/1.1/DTD/svg11.dtd">
<svg version="1.1" id="Layer_27" xmlns="http://www.w3.org/2000/svg" xmlns:xlink="http://www.w3.org/1999/xlink" x="0px" y="0px"
	 viewBox="0 0 24 24" enable-background="new 0 0 24 24" xml:space="preserve">
<path fill="#8E878E" d="M16.42,2H7.579C6.925,2,6.394,2.584,6.394,3.3v17.401C6.394,21.418,6.925,22,7.579,22h8.841
	c0.654,0,1.186-0.582,1.186-1.299V3.3C17.605,2.584,17.074,2,16.42,2z M12,20.945c-0.342,0-0.62-0.276-0.62-0.618
	c0-0.343,0.278-0.62,0.62-0.62s0.619,0.277,0.619,0.62C12.619,20.669,12.342,20.945,12,20.945z M16.629,19.19h-9.26V4.878h9.26
	V19.19z"/>
</svg>
