<?xml version="1.0" encoding="utf-8"?>
<!-- Generator: Adobe Illustrator 15.0.2, SVG Export Plug-In . SVG Version: 6.00 Build 0)  -->
<!DOCTYPE svg PUBLIC "-//W3C//DTD SVG 1.1//EN" "http://www.w3.org/Graphics/SVG/1.1/DTD/svg11.dtd">
<svg version="1.1" id="Layer_6" xmlns="http://www.w3.org/2000/svg" xmlns:xlink="http://www.w3.org/1999/xlink" x="0px" y="0px"
	 viewBox="0 0 24 24" enable-background="new 0 0 24 24" xml:space="preserve">
<path fill="#08BF9C" d="M21.995,6.888l-0.008-0.1c-0.104-1.261-1.172-2.248-2.432-2.248H4.443c-1.26,0-2.327,0.987-2.43,2.244
	L2.005,6.888L2,6.949v0.049v0.08v0.008v0.007v0.02v0.01V17v0.049l0.005,0.063l0.009,0.104c0.103,1.256,1.17,2.244,2.43,2.244h15.112
	c1.26,0,2.328-0.988,2.432-2.248l0.008-0.1L22,17.063v-0.049V7.128V7.094V7.093V7.086V7.078V6.985V6.936L21.995,6.888z
	 M20.855,17.014l-0.009,0.104c-0.055,0.668-0.61,1.197-1.291,1.197H4.443c-0.68,0-1.235-0.529-1.29-1.197l-0.009-0.104V17V9.131
	l4.621,3.309L3.98,15.563c-0.222,0.129-0.297,0.414-0.171,0.635c0.086,0.148,0.242,0.232,0.403,0.232c0.078,0,0.158-0.02,0.23-0.063
	l4.142-3.342l1.805,1.293c0.441,0.311,0.974,0.475,1.538,0.475c0.563,0,1.104-0.172,1.49-0.463l1.927-1.344l4.213,3.381
	c0.071,0.043,0.152,0.063,0.23,0.063c0.16,0,0.316-0.084,0.402-0.232c0.127-0.221,0.051-0.506-0.171-0.635l-3.842-3.157l4.678-3.265
	V17V17.014z M20.854,7.078L20.847,7.16c-0.028,0.362-0.208,0.679-0.471,0.897c-0.017,0.02-0.03,0.038-0.049,0.058l-7.563,5.277
	c-0.222,0.166-0.52,0.256-0.836,0.256c-0.322,0-0.631-0.092-0.878-0.266L3.692,8.115C3.665,8.095,3.644,8.073,3.618,8.051
	c-0.024-0.02-0.049-0.039-0.07-0.06C3.346,7.795,3.221,7.56,3.197,7.401c-0.021-0.069-0.045-0.272-0.05-0.323H3.145v-0.08V6.985
	l0.009-0.103c0.055-0.668,0.61-1.198,1.29-1.198h15.112c0.681,0,1.236,0.53,1.291,1.198l0.009,0.103v0.014L20.854,7.078
	L20.854,7.078z"/>
</svg>
