<?xml version="1.0" encoding="utf-8"?>
<!-- Generator: Adobe Illustrator 15.0.2, SVG Export Plug-In . SVG Version: 6.00 Build 0)  -->
<!DOCTYPE svg PUBLIC "-//W3C//DTD SVG 1.1//EN" "http://www.w3.org/Graphics/SVG/1.1/DTD/svg11.dtd">
<svg version="1.1" id="Layer_25" xmlns="http://www.w3.org/2000/svg" xmlns:xlink="http://www.w3.org/1999/xlink" x="0px" y="0px"
	 viewBox="0 0 24 24" enable-background="new 0 0 24 24" xml:space="preserve">
<g>
	<g>
		<path fill="#8E878E" d="M12.001,12.39c-2.588,0-4.691-2.33-4.691-5.195C7.31,4.33,9.413,2,12.001,2c2.584,0,4.69,2.33,4.69,5.194
			C16.691,10.06,14.585,12.39,12.001,12.39z M12.001,3.268c-1.888,0-3.423,1.762-3.423,3.927s1.536,3.927,3.423,3.927
			c1.887,0,3.422-1.762,3.422-3.927S13.888,3.268,12.001,3.268z"/>
	</g>
	<path fill="#8E878E" d="M19.098,15.72c-0.22-2.042-3.786-3.293-7.097-3.293c-3.316,0-6.888,1.254-7.102,3.299
		c-0.12,0.349-0.158,1.248,0.049,4.371c0.016,0.238,0.164,0.445,0.384,0.539C7.462,21.542,9.706,22,12.001,22
		s4.537-0.458,6.665-1.364c0.221-0.094,0.369-0.301,0.384-0.539C19.261,16.959,19.222,16.064,19.098,15.72z M17.813,19.615
		c-3.727,1.483-7.894,1.484-11.625,0c-0.146-2.291-0.157-3.09-0.109-3.356c0-0.015-0.009-0.026-0.009-0.041
		c0-0.217,0.074-0.412,0.181-0.596c0.453-0.931,2.907-1.927,5.751-1.927c3.146,0,5.842,1.222,5.842,2.225
		c0,0.101,0.054,0.19,0.066,0.287C17.954,16.533,17.966,17.17,17.813,19.615z"/>
</g>
</svg>
