<?xml version="1.0" encoding="utf-8"?>
<!-- Generator: Adobe Illustrator 15.0.2, SVG Export Plug-In . SVG Version: 6.00 Build 0)  -->
<!DOCTYPE svg PUBLIC "-//W3C//DTD SVG 1.1//EN" "http://www.w3.org/Graphics/SVG/1.1/DTD/svg11.dtd">
<svg version="1.1" id="Layer_19" xmlns="http://www.w3.org/2000/svg" xmlns:xlink="http://www.w3.org/1999/xlink" x="0px" y="0px"
	 viewBox="0 0 24 24" enable-background="new 0 0 24 24" xml:space="preserve">
<path fill="#F4F2F4" d="M20.93,6.639h-3.498V3.141c0-0.552-0.447-1-1-1s-1,0.448-1,1v3.498h-3.501c-0.552,0-1,0.448-1,1s0.448,1,1,1
	h3.501v3.5c0,0.552,0.447,1,1,1s1-0.448,1-1v-3.5h3.498c0.553,0,1-0.448,1-1S21.482,6.639,20.93,6.639z"/>
<path fill="#F4F2F4" d="M10.281,10.618c0-1.994-1.432-3.598-3.199-3.598c-1.77,0-3.2,1.604-3.2,3.598c0,1.996,1.431,3.595,3.2,3.595
	C8.849,14.213,10.281,12.613,10.281,10.618"/>
<path fill="#F4F2F4" d="M12.189,17.1c0-1.252-2.51-2.256-5.107-2.256c-2.599,0-5.11,1.004-5.11,2.256c0,0-0.181-0.148,0.046,3.26
	c1.575,0.67,3.279,1.037,5.064,1.037c1.783,0,3.489-0.367,5.063-1.037C12.373,16.951,12.189,17.1,12.189,17.1"/>
</svg>
