<?xml version="1.0" encoding="utf-8"?>
<!-- Generator: Adobe Illustrator 15.0.2, SVG Export Plug-In . SVG Version: 6.00 Build 0)  -->
<!DOCTYPE svg PUBLIC "-//W3C//DTD SVG 1.1//EN" "http://www.w3.org/Graphics/SVG/1.1/DTD/svg11.dtd">
<svg version="1.1" id="Layer_10" xmlns="http://www.w3.org/2000/svg" xmlns:xlink="http://www.w3.org/1999/xlink" x="0px" y="0px"
	 viewBox="0 0 24 24" enable-background="new 0 0 24 24" xml:space="preserve">
<g>
	<path fill="#8E878E" d="M19.101,1H4.9C3.906,1,3.097,1.809,3.097,2.803c0,0,0,12.266,0,12.267c0,0.641,0.326,1.251,0.702,1.746
		c0.342,0.45,0.669,0.911,1.007,1.364c0.467,0.626,0.928,1.257,1.393,1.885c0.422,0.569,0.843,1.141,1.265,1.711
		c0.208,0.282,0.417,0.563,0.635,0.859C8.315,22.926,8.846,23,9.186,23h9.915c0.994,0,1.803-0.808,1.803-1.804V2.803
		C20.903,1.809,20.095,1,19.101,1z M5.882,17.609l3.147,1.019c0.126,0.039,0.214,0.111,0.248,0.203
		c0.036,0.089,0.016,0.201-0.052,0.317L8.238,20.8L5.882,17.609z M19.702,21.196c0,0.33-0.272,0.602-0.602,0.602H9.186
		c-0.043,0-0.078-0.003-0.101-0.003c-0.012,0-0.02,0-0.025,0.003c0.008-0.029,0.025-0.073,0.055-0.122l1.141-1.909
		c0.256-0.43,0.309-0.927,0.146-1.36c-0.164-0.435-0.529-0.771-1.004-0.922L5.027,16.07c-0.381-0.123-0.728-0.599-0.728-1.001V2.803
		c0-0.331,0.27-0.602,0.601-0.602h14.201c0.329,0,0.602,0.271,0.602,0.602V21.196z"/>
	<path fill="#8E878E" d="M16.516,6.47H7.485c-0.332,0-0.601,0.269-0.601,0.602c0,0.331,0.269,0.6,0.601,0.6h9.031
		c0.332,0,0.601-0.269,0.601-0.6C17.116,6.738,16.848,6.47,16.516,6.47z"/>
	<path fill="#8E878E" d="M16.516,9.675H7.485c-0.332,0-0.601,0.27-0.601,0.602s0.269,0.602,0.601,0.602h9.031
		c0.332,0,0.601-0.27,0.601-0.602S16.848,9.675,16.516,9.675z"/>
	<path fill="#8E878E" d="M16.516,12.882H7.485c-0.332,0-0.601,0.269-0.601,0.602c0,0.332,0.269,0.601,0.601,0.601h9.031
		c0.332,0,0.601-0.269,0.601-0.601C17.116,13.15,16.848,12.882,16.516,12.882z"/>
</g>
</svg>
