<?xml version="1.0" encoding="utf-8"?>
<!-- Generator: Adobe Illustrator 15.0.2, SVG Export Plug-In . SVG Version: 6.00 Build 0)  -->
<!DOCTYPE svg PUBLIC "-//W3C//DTD SVG 1.1//EN" "http://www.w3.org/Graphics/SVG/1.1/DTD/svg11.dtd">
<svg version="1.1" id="Layer_1" xmlns="http://www.w3.org/2000/svg" xmlns:xlink="http://www.w3.org/1999/xlink" x="0px" y="0px"
	 viewBox="0 0 24 24" enable-background="new 0 0 24 24" xml:space="preserve">
<g>
	<g>
		<path fill="#08BF9C" d="M20.851,7.077H3.149C2.515,7.077,2,6.563,2,5.928c0-0.634,0.515-1.149,1.149-1.149h17.702
			C21.486,4.779,22,5.294,22,5.928C22,6.563,21.486,7.077,20.851,7.077z"/>
	</g>
	<g>
		<path fill="#08BF9C" d="M20.851,13.054H3.149C2.515,13.054,2,12.54,2,11.904c0-0.635,0.515-1.149,1.149-1.149h17.702
			c0.636,0,1.149,0.514,1.149,1.149C22,12.54,21.486,13.054,20.851,13.054z"/>
	</g>
	<g>
		<path fill="#08BF9C" d="M20.851,19.029H3.149C2.515,19.029,2,18.516,2,17.881s0.515-1.149,1.149-1.149h17.702
			c0.636,0,1.149,0.515,1.149,1.149S21.486,19.029,20.851,19.029z"/>
	</g>
</g>
</svg>
