<?xml version="1.0" encoding="utf-8"?>
<!-- Generator: Adobe Illustrator 15.0.2, SVG Export Plug-In . SVG Version: 6.00 Build 0)  -->
<!DOCTYPE svg PUBLIC "-//W3C//DTD SVG 1.1//EN" "http://www.w3.org/Graphics/SVG/1.1/DTD/svg11.dtd">
<svg version="1.1" id="Layer_26_copy" xmlns="http://www.w3.org/2000/svg" xmlns:xlink="http://www.w3.org/1999/xlink" x="0px"
	 y="0px" viewBox="0 0 24 24" enable-background="new 0 0 24 24" xml:space="preserve">
<path fill="#8E878E" d="M22.917,14.838c-0.159-1.488-2.104-2.424-4.252-2.734c1.391-0.677,2.365-2.203,2.365-3.98
	c0-2.401-1.776-4.354-3.962-4.354c-0.698,0-1.345,0.218-1.915,0.568c-0.785-0.923-1.89-1.508-3.121-1.508
	c-1.245,0-2.358,0.597-3.145,1.535C8.309,3.998,7.647,3.77,6.932,3.77c-2.185,0-3.963,1.953-3.963,4.354
	c0,1.776,0.975,3.302,2.365,3.979c-2.152,0.307-4.096,1.233-4.24,2.668c-0.112,0.33-0.144,1.011,0.022,3.516
	c0.024,0.311,0.215,0.578,0.498,0.699c1.483,0.631,3.039,0.974,4.628,1.052c1.857,0.744,3.801,1.132,5.791,1.132
	c1.992,0,3.938-0.389,5.797-1.135c1.565-0.086,3.097-0.427,4.555-1.049c0.284-0.121,0.479-0.396,0.497-0.702
	C23.051,15.767,23.017,15.086,22.917,14.838z M17.068,4.428c1.822,0,3.304,1.658,3.304,3.696c0,2.039-1.481,3.698-3.304,3.698
	c-0.777,0-1.486-0.309-2.05-0.814c0.807-0.865,1.313-2.073,1.313-3.415c0-1.015-0.293-1.952-0.783-2.726
	C16.005,4.597,16.516,4.428,17.068,4.428z M15.502,12.119c-0.598,0.087-1.177,0.216-1.707,0.397
	c-0.581-0.083-1.176-0.127-1.763-0.127c-0.599,0-1.207,0.046-1.799,0.132c-0.537-0.187-1.13-0.313-1.736-0.402
	c0.368-0.175,0.706-0.409,1.006-0.691c0.712,0.576,1.581,0.927,2.529,0.927c0.932,0,1.79-0.338,2.495-0.898
	C14.82,11.727,15.147,11.95,15.502,12.119z M12.032,3.992c0.87,0,1.657,0.41,2.226,1.069c-0.004,0.004-0.009,0.007-0.013,0.012
	c0.147,0.172,0.278,0.362,0.394,0.564c0.004-0.005,0.01-0.008,0.014-0.013c0.324,0.566,0.516,1.242,0.516,1.969
	c0,0.972-0.34,1.851-0.887,2.499c-0.002-0.004-0.005-0.008-0.008-0.013c-0.149,0.179-0.312,0.342-0.489,0.483
	c0.002,0.003,0.005,0.006,0.007,0.01c-0.502,0.393-1.107,0.623-1.759,0.623c-0.859,0-1.637-0.398-2.204-1.04
	c-0.006-0.007-0.013-0.012-0.019-0.019C9.242,9.484,8.891,8.585,8.891,7.593C8.891,5.608,10.298,3.992,12.032,3.992z M3.627,8.124
	c0-2.038,1.482-3.696,3.305-3.696c0.57,0,1.095,0.18,1.561,0.467C8.014,5.663,7.73,6.591,7.73,7.593
	c0,1.326,0.491,2.522,1.281,3.386c-0.567,0.523-1.288,0.843-2.079,0.843C5.109,11.822,3.627,10.163,3.627,8.124z M5.518,15.416
	c-0.108,0.316-0.144,1.134,0.038,3.905c-1.257-0.13-2.5-0.438-3.685-0.941c-0.056-0.023-0.095-0.079-0.099-0.14
	c-0.129-1.953-0.147-2.987-0.04-3.328c0.144-1.354,2.793-2.264,5.179-2.264c0.617,0,1.248,0.068,1.852,0.184
	C7.007,13.33,5.644,14.228,5.518,15.416z M17.361,18.984c-3.417,1.358-7.24,1.358-10.662,0c-0.134-2.104-0.144-2.833-0.1-3.08
	c0-0.014-0.009-0.023-0.009-0.036c0-0.198,0.068-0.379,0.167-0.547c0.416-0.854,2.665-1.767,5.275-1.767
	c2.883,0,5.354,1.122,5.354,2.038c0,0.095,0.053,0.176,0.063,0.266C17.49,16.157,17.503,16.74,17.361,18.984z M22.225,18.241
	c-0.004,0.061-0.042,0.114-0.099,0.139c-1.164,0.496-2.386,0.792-3.623,0.925c0.184-2.774,0.146-3.584,0.037-3.895
	c-0.13-1.193-1.511-2.092-3.279-2.587c0.597-0.111,1.22-0.175,1.828-0.175c2.381,0,5.028,0.909,5.191,2.337
	C22.402,15.328,22.307,17.006,22.225,18.241z"/>
</svg>
