<?xml version="1.0" encoding="utf-8"?>
<!-- Generator: Adobe Illustrator 15.0.2, SVG Export Plug-In . SVG Version: 6.00 Build 0)  -->
<!DOCTYPE svg PUBLIC "-//W3C//DTD SVG 1.1//EN" "http://www.w3.org/Graphics/SVG/1.1/DTD/svg11.dtd">
<svg version="1.1" id="Layer_5" xmlns="http://www.w3.org/2000/svg" xmlns:xlink="http://www.w3.org/1999/xlink" x="0px" y="0px"
	 viewBox="0 0 24 24" enable-background="new 0 0 24 24" xml:space="preserve">
<path fill="#F4F2F4" d="M14.193,12l7.354-7.352c0.606-0.605,0.606-1.587,0-2.193c-0.606-0.607-1.587-0.607-2.194,0l-7.351,7.351
	L4.648,2.455c-0.606-0.607-1.588-0.607-2.194,0c-0.605,0.606-0.605,1.588,0,2.193L9.806,12l-7.354,7.352
	c-0.605,0.605-0.605,1.589,0,2.194C2.755,21.848,3.153,22,3.549,22s0.794-0.152,1.097-0.454L12,14.193l7.352,7.353
	C19.657,21.848,20.053,22,20.45,22s0.794-0.152,1.097-0.454c0.606-0.605,0.606-1.589,0-2.194L14.193,12z"/>
</svg>
