<?xml version="1.0" encoding="utf-8"?>
<!-- Generator: Adobe Illustrator 15.0.2, SVG Export Plug-In . SVG Version: 6.00 Build 0)  -->
<!DOCTYPE svg PUBLIC "-//W3C//DTD SVG 1.1//EN" "http://www.w3.org/Graphics/SVG/1.1/DTD/svg11.dtd">
<svg version="1.1" id="Layer_7" xmlns="http://www.w3.org/2000/svg" xmlns:xlink="http://www.w3.org/1999/xlink" x="0px" y="0px"
	viewBox="0 0 24 24" enable-background="new 0 0 24 24" xml:space="preserve">
<path fill="#08BF9C" d="M7.354,17.354C4.401,17.354,2,14.952,2,12.001c0-2.953,2.401-5.354,5.354-5.354
	c1.933,0,3.683,1.022,4.639,2.688h8.605c0.773,0,1.402,0.628,1.402,1.401v2.036c0,0.589-0.376,1.104-0.906,1.306
	c-0.213,0.751-0.903,1.297-1.709,1.297c-0.562,0-1.068-0.268-1.395-0.684c-0.327,0.416-0.834,0.684-1.396,0.684
	c-0.561,0-1.067-0.268-1.395-0.684c-0.327,0.416-0.835,0.684-1.396,0.684c-0.716,0-1.345-0.438-1.623-1.065
	C11.299,16.147,9.417,17.354,7.354,17.354z M7.354,7.619c-2.416,0-4.381,1.966-4.381,4.382c0,2.415,1.965,4.38,4.381,4.38
	c1.823,0,3.474-1.151,4.106-2.863l0.118-0.318h1.393l0.033,0.45c0.031,0.421,0.383,0.751,0.8,0.751c0.419,0,0.771-0.33,0.8-0.749
	l0.034-0.452h1.127l0.031,0.453c0.03,0.419,0.381,0.748,0.799,0.748s0.77-0.329,0.799-0.748l0.032-0.453h1.126l0.033,0.452
	c0.031,0.419,0.383,0.749,0.8,0.749c0.422,0,0.773-0.332,0.8-0.755l0.027-0.418l0.42-0.034c0.227-0.019,0.396-0.2,0.396-0.423
	v-2.036c0-0.236-0.193-0.428-0.43-0.428h-9.196l-0.135-0.268C10.518,8.546,9.018,7.619,7.354,7.619z M5.145,13.796
	c-0.982,0-1.78-0.798-1.78-1.778c0-0.982,0.798-1.78,1.78-1.78c0.981,0,1.779,0.798,1.779,1.78
	C6.923,12.998,6.125,13.796,5.145,13.796z M5.145,11.21c-0.445,0-0.807,0.362-0.807,0.808c0,0.444,0.362,0.805,0.807,0.805
	s0.807-0.361,0.807-0.805C5.951,11.573,5.589,11.21,5.145,11.21z"/>
</svg>
