<?xml version="1.0" encoding="utf-8"?>
<!-- Generator: Adobe Illustrator 15.0.2, SVG Export Plug-In . SVG Version: 6.00 Build 0)  -->
<!DOCTYPE svg PUBLIC "-//W3C//DTD SVG 1.1//EN" "http://www.w3.org/Graphics/SVG/1.1/DTD/svg11.dtd">
<svg version="1.1" id="Layer_8" xmlns="http://www.w3.org/2000/svg" xmlns:xlink="http://www.w3.org/1999/xlink" x="0px" y="0px"
	 viewBox="0 0 24 24" enable-background="new 0 0 24 24" xml:space="preserve">
<path fill="#8E878E" d="M8.131,16.857c0,0,1.604,1.691,4.045,1.691c1.693,0,3.077-1.011,3.077-2.683c0-3.757-7.781-2.986-7.781-7.69
	c0-2.022,1.604-3.782,4.044-4.088V2h1.232v2.044c2.373,0.131,3.669,1.472,3.669,1.472l-0.746,1.275c0,0-1.386-1.319-3.385-1.319
	c-2,0-3.253,1.298-3.253,2.66c0,3.54,7.758,2.704,7.758,7.691c0,2.132-1.517,3.891-4.043,4.132V22h-1.232v-2.045
	c-2.791-0.219-4.308-1.934-4.308-1.934L8.131,16.857z"/>
</svg>
