<?xml version="1.0" encoding="utf-8"?>
<!-- Generator: Adobe Illustrator 15.0.2, SVG Export Plug-In . SVG Version: 6.00 Build 0)  -->
<!DOCTYPE svg PUBLIC "-//W3C//DTD SVG 1.1//EN" "http://www.w3.org/Graphics/SVG/1.1/DTD/svg11.dtd">
<svg version="1.1" id="Layer_28" xmlns="http://www.w3.org/2000/svg" xmlns:xlink="http://www.w3.org/1999/xlink" x="0px" y="0px"
	 viewBox="0 0 24 24" enable-background="new 0 0 24 24" xml:space="preserve">
<path fill="#8E878E" d="M19.748,10.907h-7.057c0-0.021,0.008-0.037,0.008-0.058V5.562c0.455-0.25,0.77-0.727,0.77-1.281
	c0-0.583-0.613-1.529-0.976-2.041c-0.227-0.321-0.759-0.321-0.987,0c-0.363,0.512-0.974,1.458-0.974,2.041
	c0,0.555,0.313,1.032,0.768,1.281v5.287c0,0.021,0.007,0.038,0.008,0.058H4.251c-0.668,0-1.211,0.542-1.211,1.211v8.672
	c0,0.668,0.543,1.21,1.211,1.21h15.497c0.668,0,1.211-0.542,1.211-1.21v-8.672C20.959,11.45,20.416,10.907,19.748,10.907z M12,3.227
	c0.263,0.468,0.442,0.851,0.462,1.017c0,0.25-0.2,0.451-0.451,0.458C12,4.701,11.989,4.699,11.979,4.699
	c-0.244-0.014-0.442-0.207-0.445-0.43C11.556,4.091,11.736,3.699,12,3.227z M19.748,12.118v6.375H4.251v-6.376L19.748,12.118z
	 M4.251,20.79v-1.087h15.497v1.087H4.251z M19.748,21.395V20.79l0,0V21.395z"/>
</svg>
